<?xml version="1.0" encoding="UTF-8"?>
<svg width="127" height="21" version="1.1" xmlns="http://www.w3.org/2000/svg">
 <path d="m62.5 1.2c-5.6 0-10.1 4.5-10.1 10.1s4.5 10.1 10.1 10.1 10.1-4.5 10.1-10.1-4.5-10.1-10.1-10.1zm0 15.1c-2.8 0-5-2.2-5-5s2.2-5 5-5 5 2.2 5 5-2.2 5-5 5z" fill="#FF6B00"/>
 <path d="m17.3 1.2c-5.6 0-10.1 4.5-10.1 10.1s4.5 10.1 10.1 10.1 10.1-4.5 10.1-10.1-4.5-10.1-10.1-10.1zm0 15.1c-2.8 0-5-2.2-5-5s2.2-5 5-5 5 2.2 5 5-2.2 5-5 5z" fill="#FF6B00"/>
 <path d="m89.9 1.2h-5.3v20.2h5.3v-20.2z" fill="#FF6B00"/>
 <path d="m107.7 1.2h-5.3v20.2h5.3v-20.2z" fill="#FF6B00"/>
 <path d="m35.1 1.2h-5.3v20.2h5.3v-20.2z" fill="#FF6B00"/>
 <path d="m125.5 1.2h-5.3v20.2h5.3v-20.2z" fill="#FF6B00"/>
 <path d="m80.3 11.3c0-5.6-4.5-10.1-10.1-10.1h-5.3v20.2h5.3c5.6 0 10.1-4.5 10.1-10.1zm-5.1 0c0 2.8-2.2 5-5 5h-0.2v-10h0.2c2.8 0 5 2.2 5 5z" fill="#FF6B00"/>
 <path d="m98.8 11.3c0-5.6-4.5-10.1-10.1-10.1h-5.3v20.2h5.3c5.6 0 10.1-4.5 10.1-10.1zm-5.1 0c0 2.8-2.2 5-5 5h-0.2v-10h0.2c2.8 0 5 2.2 5 5z" fill="#FF6B00"/>
 <path d="m116.6 11.3c0-5.6-4.5-10.1-10.1-10.1h-5.3v20.2h5.3c5.6 0 10.1-4.5 10.1-10.1zm-5.1 0c0 2.8-2.2 5-5 5h-0.2v-10h0.2c2.8 0 5 2.2 5 5z" fill="#FF6B00"/>
</svg> 