<svg width="310" height="120" viewBox="0 0 310 120" fill="none" xmlns="http://www.w3.org/2000/svg">
<path d="M25.04 32.16C30.9067 32.16 36.0533 33.3067 40.48 35.6C44.96 37.8933 48.4 41.1733 50.8 45.44C53.2533 49.6533 54.48 54.56 54.48 60.16C54.48 65.76 53.2533 70.6667 50.8 74.88C48.4 79.04 44.96 82.2667 40.48 84.56C36.0533 86.8533 30.9067 88 25.04 88H5.52V32.16H25.04ZM24.64 78.48C30.5067 78.48 35.04 76.88 38.24 73.68C41.44 70.48 43.04 65.9733 43.04 60.16C43.04 54.3467 41.44 49.8133 38.24 46.56C35.04 43.2533 30.5067 41.6 24.64 41.6H16.72V78.48H24.64ZM82.0438 88.72C77.7771 88.72 73.9371 87.7867 70.5238 85.92C67.1104 84 64.4171 81.3067 62.4438 77.84C60.5238 74.3733 59.5638 70.3733 59.5638 65.84C59.5638 61.3067 60.5504 57.3067 62.5238 53.84C64.5504 50.3733 67.2971 47.7067 70.7638 45.84C74.2304 43.92 78.0971 42.96 82.3638 42.96C86.6304 42.96 90.4971 43.92 93.9638 45.84C97.4304 47.7067 100.15 50.3733 102.124 53.84C104.15 57.3067 105.164 61.3067 105.164 65.84C105.164 70.3733 104.124 74.3733 102.044 77.84C100.017 81.3067 97.2438 84 93.7238 85.92C90.2571 87.7867 86.3638 88.72 82.0438 88.72ZM82.0438 78.96C84.0704 78.96 85.9638 78.48 87.7238 77.52C89.5371 76.5067 90.9771 75.0133 92.0438 73.04C93.1104 71.0667 93.6438 68.6667 93.6438 65.84C93.6438 61.6267 92.5238 58.4 90.2838 56.16C88.0971 53.8667 85.4038 52.72 82.2038 52.72C79.0038 52.72 76.3104 53.8667 74.1238 56.16C71.9904 58.4 70.9238 61.6267 70.9238 65.84C70.9238 70.0533 71.9638 73.3067 74.0438 75.6C76.1771 77.84 78.8438 78.96 82.0438 78.96ZM124.079 28.8V88H112.879V28.8H124.079ZM145.845 50.08C147.285 48.0533 149.258 46.3733 151.765 45.04C154.325 43.6533 157.232 42.96 160.485 42.96C164.272 42.96 167.685 43.8933 170.725 45.76C173.818 47.6267 176.245 50.2933 178.005 53.76C179.818 57.1733 180.725 61.1467 180.725 65.68C180.725 70.2133 179.818 74.24 178.005 77.76C176.245 81.2267 173.818 83.92 170.725 85.84C167.685 87.76 164.272 88.72 160.485 88.72C157.232 88.72 154.352 88.0533 151.845 86.72C149.392 85.3867 147.392 83.7067 145.845 81.68V109.12H134.645V43.68H145.845V50.08ZM169.285 65.68C169.285 63.0133 168.725 60.72 167.605 58.8C166.538 56.8267 165.098 55.3333 163.285 54.32C161.525 53.3067 159.605 52.8 157.525 52.8C155.498 52.8 153.578 53.3333 151.765 54.4C150.005 55.4133 148.565 56.9067 147.445 58.88C146.378 60.8533 145.845 63.1733 145.845 65.84C145.845 68.5067 146.378 70.8267 147.445 72.8C148.565 74.7733 150.005 76.2933 151.765 77.36C153.578 78.3733 155.498 78.88 157.525 78.88C159.605 78.88 161.525 78.3467 163.285 77.28C165.098 76.2133 166.538 74.6933 167.605 72.72C168.725 70.7467 169.285 68.4 169.285 65.68ZM213.324 43.04C216.684 43.04 219.67 43.7867 222.284 45.28C224.897 46.72 226.924 48.88 228.364 51.76C229.857 54.5867 230.604 58 230.604 62V88H219.404V63.52C219.404 60 218.524 57.3067 216.764 55.44C215.004 53.52 212.604 52.56 209.564 52.56C206.47 52.56 204.017 53.52 202.204 55.44C200.444 57.3067 199.564 60 199.564 63.52V88H188.364V28.8H199.564V49.2C201.004 47.28 202.924 45.7867 205.324 44.72C207.724 43.6 210.39 43.04 213.324 43.04ZM246.434 38.4C244.461 38.4 242.808 37.7867 241.474 36.56C240.194 35.28 239.554 33.7067 239.554 31.84C239.554 29.9733 240.194 28.4267 241.474 27.2C242.808 25.92 244.461 25.28 246.434 25.28C248.408 25.28 250.034 25.92 251.314 27.2C252.648 28.4267 253.314 29.9733 253.314 31.84C253.314 33.7067 252.648 35.28 251.314 36.56C250.034 37.7867 248.408 38.4 246.434 38.4ZM251.954 43.68V88H240.754V43.68H251.954ZM287.08 43.04C292.36 43.04 296.627 44.72 299.88 48.08C303.133 51.3867 304.76 56.0267 304.76 62V88H293.56V63.52C293.56 60 292.68 57.3067 290.92 55.44C289.16 53.52 286.76 52.56 283.72 52.56C280.627 52.56 278.173 53.52 276.36 55.44C274.6 57.3067 273.72 60 273.72 63.52V88H262.52V43.68H273.72V49.2C275.213 47.28 277.107 45.7867 279.4 44.72C281.747 43.6 284.307 43.04 287.08 43.04Z" fill="black"/>
</svg>
