<?xml version="1.0" encoding="UTF-8"?>
<svg width="320px" height="130px" viewBox="0 0 320 130" version="1.1" xmlns="http://www.w3.org/2000/svg" xmlns:xlink="http://www.w3.org/1999/xlink">
    <title>capital-one</title>
    <g id="capital-one" stroke="none" stroke-width="1" fill="none" fill-rule="evenodd">
        <g id="Group" transform="translate(31.000000, 20.000000)" fill-rule="nonzero">
            <path d="M170.297249,65.1306908 C159.580124,72.7383749 146.908302,80.6826823 133.292834,88.9636128 L132.753607,89.300236 C132.551398,89.4348853 132.551398,89.7041839 132.686205,89.8388331 C132.821011,90.040807 133.090624,90.040807 133.225431,89.9061578 L133.697254,89.6368592 C145.223219,83.6449663 158.50167,76.44123 171.847526,69.1028445 C171.914928,69.0355198 171.982332,69.0355198 172.049735,68.9681951 C171.375703,67.891001 170.769072,66.5445082 170.297249,65.1306908 L170.297249,65.1306908 Z M240.464091,8.37602054 C223.613264,-10.2055797 115.228748,6.49093065 69.1248867,16.5896264 L68.0464338,16.7916003 C67.8442239,16.858925 67.7094173,17.0608989 67.7094173,17.2628728 C67.7768205,17.4648468 67.9790304,17.599496 68.1812404,17.599496 L69.2596933,17.3975221 C107.477368,10.5977336 186.878463,1.17228422 203.998902,18.1380931 C209.188957,23.3220903 207.975698,29.9872295 201.909399,37.7968876 C205.144759,39.8839514 207.503875,43.1828587 208.514923,47.2896616 C232.106081,31.6030208 248.013261,16.6569511 240.464091,8.37602054 Z" id="Shape" fill="#D03027"></path>
            <path d="M192.675147,37.3256151 C201.134063,37.3256151 206.650863,42.9358277 207.027768,51.5619084 C209.328911,51.1351685 212.968647,50.0912981 215.524868,49.1747515 C214.985641,50.8578675 214.513818,53.2815544 213.974592,55.6379167 L213.974592,55.6379167 L213.030946,59.879369 L213.165752,59.879369 C220.782325,51.127166 224.354701,49.1747515 227.050833,49.1747515 C228.668512,49.1747515 229.679562,50.0499717 229.746965,51.8004124 C229.746965,52.6756327 229.409948,54.3587486 228.735916,56.9844096 L228.735916,56.9844096 L226.107186,66.4771836 C225.837573,67.4197285 225.433154,68.8335459 225.500557,69.7760909 C225.500557,70.5166619 225.904977,70.7859604 226.3768,70.7859604 C227.701375,70.7859604 229.380097,68.4277318 230.197811,67.1318057 C230.175707,66.9187122 230.160438,66.7002421 230.151385,66.4771836 C229.814369,57.5230066 238.239782,49.1747515 245.114919,49.1747515 C248.080665,49.1747515 250.776796,50.4539195 250.911604,53.6181776 C251.181217,60.7545892 241.138124,62.9089777 234.5326,63.043627 C234.33039,63.784198 234.262986,64.524769 234.262986,65.6692878 C234.397794,68.631572 236.150279,71.1225836 239.857461,71.1225836 C243.160223,71.1225836 246.328179,68.5642473 247.945857,66.0732358 L248.754697,66.6118328 C246.732598,70.7859604 242.553594,74.1521923 237.633152,74.1521923 C234.264277,74.1521923 231.379112,72.2196125 230.452814,68.6000258 C228.661043,71.4434254 226.554452,74.0848677 223.815474,74.0848677 C222.197795,74.0848677 221.119342,73.3442967 221.051939,71.5265314 C220.984535,70.3820126 221.388955,68.6988966 221.928182,66.8811314 L221.928182,66.8811314 L224.287298,58.7348501 C224.55691,57.9269545 225.36575,54.9646704 225.298348,53.6855023 C225.298348,52.8102819 224.759121,52.4063341 224.017685,52.4063341 C222.400005,52.4063341 219.63647,54.7626965 212.626525,62.1010821 L212.626525,62.1010821 L210.334813,73.2769721 L206.223212,73.2769721 C206.829841,70.9206097 207.503875,67.891001 208.177907,64.9960415 L208.177907,64.9960415 L209.795586,57.9942791 C209.930393,57.253708 210.739233,54.0894501 210.739233,53.6181776 C210.739233,52.8776066 209.997797,52.7429573 209.256361,52.7429573 C208.784538,52.7429573 207.638681,52.8776066 206.897245,52.9449312 L207.042649,52.9313864 C206.84377,64.2077557 198.803566,74.219517 186.00222,74.219517 C177.509403,74.219517 171.914928,68.5642473 171.645316,59.879369 C171.240895,48.703479 180.003326,37.3256151 192.675147,37.3256151 Z M84.0210173,45.4718964 C86.3801331,45.4718964 87.7956025,45.6065456 89.5480884,46.4817659 C91.3005744,47.4243108 92.513834,48.703479 93.187867,50.4539195 C93.8619001,52.1370355 93.9967066,54.0894501 93.6596902,56.1765139 C93.0530603,59.6100704 91.3679777,62.3703806 88.6044421,64.3901198 C85.8409066,66.4098589 83.4143875,66.948456 79.8420124,66.948456 C78.5613495,66.948456 77.5503,66.8138067 76.6740569,66.6118328 C75.797814,66.4098589 75.1237809,66.1405603 74.6519578,65.8039372 C74.1801346,65.4673139 73.6409082,64.9960415 72.9668751,64.2554704 L71.2817924,73.8828938 L61.1712966,73.8828938 L61.1712966,73.8155692 L66.1591412,45.8085195 L75.1237809,45.8085195 L74.4497479,49.3767254 C75.2585875,48.2995312 76.471847,47.4243108 78.224333,46.6837399 C79.9768189,45.9431688 81.9315149,45.4718964 84.0210173,45.4718964 Z M191.731501,38.7394325 C182.632054,38.8740818 176.83537,51.5984385 177.172387,60.2159922 C177.374596,66.7464821 181.553602,72.0651285 186.945866,72.0651285 C197.393378,72.0651285 201.841997,59.2734473 201.572383,50.6558935 C201.370174,44.1254036 197.123765,38.7394325 191.731501,38.7394325 Z M24.4364946,37.1236411 C27.8740633,37.0563166 30.5027923,37.2582905 34.5469906,38.8067571 L34.5469906,38.8067571 L33.2663278,46.0778181 C30.3005823,44.3947021 28.1436766,43.9234296 25.3127377,43.9234296 C16.3480979,43.9234296 12.843126,50.1846211 12.7083195,53.1469051 C12.5061094,57.5903313 16.3480979,60.0140183 21.2685393,60.0140183 C24.5713013,60.0140183 26.4585939,59.7447197 29.7613559,59.0714734 L29.7613559,59.0714734 L28.4132897,66.6118328 C25.0431245,66.948456 21.4707492,67.0831053 18.0331806,67.0831053 C12.1016896,67.0831053 -1.31156826,64.3227951 0.103901163,53.348879 C1.5193706,42.5769369 12.7083195,37.2582905 24.4364946,37.1236411 Z M62.384556,50.1172964 C62.3171528,51.127166 62.1823461,52.069711 61.9127329,53.6181776 L60.0254403,64.1208212 C59.8906337,65.0633661 60.2276503,65.8039372 61.1038933,66.2752097 L61.0364899,66.6791575 L50.3193643,66.6791575 L50.2519609,63.986172 C48.7016849,64.9287169 46.8143924,65.7366125 45.1293097,66.207885 C43.444227,66.6118328 42.0961609,66.8138067 40.0066584,66.8138067 C36.5690898,66.8138067 34.5469906,66.4771836 33.1989245,65.26534 C31.7834551,64.0534965 31.109422,63.2456009 31.1768253,61.4951603 C31.2442286,60.5526153 31.7160517,59.2734473 32.4574881,58.3982269 C33.1989245,57.5230066 34.2099741,56.9170849 35.288427,56.4458124 C36.3668798,55.9072153 37.714946,55.5705922 39.6022386,55.2339689 C41.4895312,54.8973457 44.11826,54.6280472 47.623232,54.3587486 C49.4431213,54.2240993 50.5889775,53.7528268 51.1282039,53.5508529 C51.8696403,53.2815544 52.1392535,52.9449312 52.2740602,52.3390094 C52.4762701,51.2618153 52.1392535,50.6558935 50.7237841,50.386595 C46.8817957,49.6460239 39.6696418,50.8578675 35.8950568,51.8004124 L37.9171559,46.3471166 C42.8375973,45.6065456 47.4210221,45.2025978 52.2740602,45.2025978 C59.9580371,45.0679486 62.4519594,47.2896616 62.384556,50.1172964 Z M144.481783,45.0679486 C152.300567,45.1352731 154.794489,47.2896616 154.727085,50.1172964 C154.659682,51.127166 154.524876,52.069711 154.187859,53.6181776 L152.300567,64.1208212 C152.16576,65.0633661 152.502777,65.8039372 153.311616,66.2752097 L153.244213,66.6118328 L142.527087,66.6118328 L142.459684,63.9188473 C140.909407,64.8613922 139.022115,65.6692878 137.337032,66.1405603 C135.65195,66.6118328 134.236481,66.7464821 132.214382,66.7464821 C128.776813,66.7464821 126.822117,66.4098589 125.406647,65.1980154 C123.991178,63.986172 123.317145,63.1782763 123.384548,61.4278357 C123.451951,60.4179661 123.923774,59.2061226 124.665211,58.3309023 C125.406647,57.455682 126.417697,56.8497602 127.49615,56.3111631 C128.574603,55.7725661 129.922669,55.4359428 131.742558,55.0993197 C133.629851,54.8300211 136.25858,54.4933979 139.830955,54.2240993 C141.650844,54.0894501 142.7967,53.6855023 143.335927,53.4835284 C144.077363,53.2142298 144.346977,52.8776066 144.481783,52.2716849 C144.683992,51.1944906 144.346977,50.5885689 142.931507,50.3192703 C139.089519,49.5786993 131.877365,50.7905428 128.10278,51.7330877 L130.124879,46.279792 C135.04532,45.5392209 139.628745,45.0679486 144.481783,45.0679486 Z M124.395597,39.008731 L123.249742,45.6065456 L128.507199,45.6065456 L127.49615,49.8479978 L122.440902,49.8479978 L119.34035,66.6791575 C119.34035,66.6791575 109.027644,66.6118328 108.960241,66.6791575 L112.060793,49.9153225 L108.151401,49.9153225 L108.960241,45.6738703 L112.937035,45.6738703 L112.937035,45.6065456 L113.678472,41.3650934 L124.395597,39.008731 Z M107.342561,45.6738703 L103.635379,66.6118328 L93.3900769,66.6118328 L97.0972587,45.6738703 L107.342561,45.6738703 Z M159.91714,37.4602644 L170.09504,37.7295629 L165.107194,66.6118328 L154.659682,66.6118328 L159.91714,37.4602644 Z M143.672944,56.9844096 C143.20112,57.1190588 142.594491,57.3210327 141.920457,57.455682 C141.179021,57.6576559 139.898358,57.8596298 137.943662,58.1289284 C136.595596,58.3309023 135.719353,58.6002009 135.180127,59.0041487 C134.708304,59.3407718 134.371287,59.8120443 134.303883,60.3506414 C134.169077,60.9565632 134.438691,61.4278357 134.910514,61.7644588 C135.44974,62.1010821 136.25858,62.303056 137.471839,62.303056 C138.348082,62.303056 139.224325,62.1684066 140.100569,61.8991082 C140.976811,61.6298096 141.718247,61.2258617 142.257474,60.7545892 C142.661893,60.4179661 142.931507,59.9466936 143.20112,59.4080965 C143.268523,59.0714734 143.470733,58.2635776 143.672944,56.9844096 Z M51.3304139,56.9170849 C50.8585908,57.1190588 50.3193643,57.253708 49.5779279,57.3883574 C48.8364915,57.5230066 47.5558287,57.7923052 45.6011328,58.0616037 C44.2530667,58.2635776 43.3768238,58.5328762 42.8375973,58.936824 C42.3657741,59.3407718 42.0287576,59.7447197 41.9613543,60.2833168 C41.8265477,60.8892386 42.0287576,61.2931864 42.567984,61.6971342 C43.1072105,62.0337574 43.9160501,62.2357313 45.1293097,62.2357313 C46.0055526,62.2357313 46.8817957,62.1010821 47.7580386,61.8317835 C48.6342816,61.5624849 49.375718,61.1585371 49.9149445,60.6872647 C50.3193643,60.3506414 50.5889775,59.879369 50.8585908,59.3407718 C50.925994,59.0041487 51.1282039,58.196253 51.3304139,56.9170849 Z M244.440886,50.3192703 C240.261881,50.3192703 235.745859,58.5328762 235.004423,61.8317835 C241.87956,61.8991082 247.204421,57.7923052 247.069615,53.1469051 C247.002211,51.4637892 246.193372,50.3192703 244.440886,50.3192703 Z M79.8420124,50.5885689 C78.4939463,50.5885689 77.2806868,50.9925167 76.2022338,51.8004124 C75.1237809,52.608308 74.4497479,53.8201515 74.1801346,55.3686182 C73.8431181,57.1863835 74.0453281,58.5328762 74.7867644,59.3407718 C75.5282007,60.1486675 76.5392504,60.5526153 77.9547198,60.5526153 C78.8983661,60.5526153 79.8420124,60.4179661 80.5834488,60.0140183 C81.4596917,59.5427458 82.0663214,59.0714734 82.6055479,58.2635776 C83.1447744,57.455682 83.5491942,56.5804617 83.7514041,55.5032675 C84.0210173,53.8201515 83.8188074,52.608308 83.0099677,51.8004124 C82.2011281,50.9925167 81.1226751,50.5885689 79.8420124,50.5885689 Z M255.292819,41.7017166 C257.247514,41.7017166 259,43.2501832 259,45.337247 C259,47.4243108 257.314918,48.9727776 255.292819,48.9727776 C253.27072,49.0401022 251.585636,47.4916355 251.585636,45.337247 C251.585636,43.2501832 253.27072,41.7017166 255.292819,41.7017166 Z M255.292819,42.374963 C253.607735,42.374963 252.327073,43.6541312 252.327073,45.4045717 C252.327073,47.1550124 253.607735,48.4341804 255.292819,48.4341804 C256.910497,48.4341804 258.258564,47.1550124 258.258564,45.4045717 C258.258564,43.6541312 256.977901,42.374963 255.292819,42.374963 Z M255.495028,43.3175079 C256.506078,43.3175079 256.977901,43.6541312 256.977901,44.5293514 C256.977901,45.2699225 256.506078,45.6065456 255.899448,45.6738703 L257.112707,47.4916355 L256.371271,47.4916355 L255.292819,45.6738703 L254.551381,45.6738703 L254.551381,47.4916355 L253.877349,47.4916355 L253.877349,43.3175079 L255.495028,43.3175079 Z M255.360221,43.8561051 L254.483979,43.8561051 L254.483979,45.1352731 L255.292819,45.1352731 C255.832044,45.1352731 256.303868,45.0679486 256.303868,44.4620268 C256.303868,43.9234296 255.832044,43.8561051 255.360221,43.8561051 Z M103.702783,37.7295629 C106.735932,37.7295629 108.960241,39.1433803 108.690627,40.8264963 C108.353611,42.5769369 105.657479,43.9234296 102.62433,43.9234296 C99.5237778,43.9907543 97.366872,42.5769369 97.6364852,40.8264963 C97.9735017,39.0760557 100.669634,37.7295629 103.702783,37.7295629 Z" id="Shape" fill="#004977"></path>
        </g>
    </g>
</svg>